<?xml version="1.0" encoding="utf-8"?>
<!-- Generator: Adobe Illustrator 16.0.0, SVG Export Plug-In . SVG Version: 6.00 Build 0)  -->
<!DOCTYPE svg PUBLIC "-//W3C//DTD SVG 1.1//EN" "http://www.w3.org/Graphics/SVG/1.1/DTD/svg11.dtd">
<svg version="1.1" id="Layer_1" xmlns="http://www.w3.org/2000/svg" xmlns:xlink="http://www.w3.org/1999/xlink" x="0px" y="0px"
	 width="860px" height="300px" viewBox="0 0 860 300" enable-background="new 0 0 860 300" xml:space="preserve">
<symbol  id="Navigatrion_selected_1" viewBox="-260.044 -66.943 520.088 133.885">
	<g>
		<path fill-rule="evenodd" clip-rule="evenodd" fill="#3A3A3A" d="M260.044-64.942h-496.088c-12.15,0-22,9.851-22,22v85.885
			c0,12.15,9.85,22,22,22h496.088"/>
		<path fill-rule="evenodd" clip-rule="evenodd" fill="none" stroke="#FFFFFF" stroke-width="4.0004" stroke-miterlimit="10" d="
			M260.034-64.942h-496.072c-12.154,0-22.006,9.851-22.006,22v85.885c0,12.15,9.852,22,22.006,22h496.072"/>
	</g>
</symbol>
<g>
	<g>
		<circle fill="#3A3A3A" cx="434.044" cy="151.257" r="84.772"/>
		<circle fill="#3A3A3A" cx="567.813" cy="124.19" r="19.178"/>
		<circle fill="#3A3A3A" cx="572.703" cy="217.101" r="16.986"/>
		<circle fill="#3A3A3A" cx="437.919" cy="22.373" r="18.31"/>
		<circle fill="#3A3A3A" cx="489.303" cy="53.491" r="14.84"/>
		<circle fill="#3A3A3A" cx="251.681" cy="81.208" r="16.841"/>
		<path fill="#3A3A3A" d="M297.672,118.757c0,8.049-6.525,14.574-14.576,14.574c-8.047,0-14.574-6.525-14.574-14.574
			s6.527-14.574,14.574-14.574C291.146,104.183,297.672,110.708,297.672,118.757z"/>
		<circle fill="#3A3A3A" cx="356.576" cy="239.356" r="18.766"/>
		<circle fill="#3A3A3A" cx="441.794" cy="281.886" r="13.499"/>
		<circle fill="#3A3A3A" cx="483.276" cy="262.64" r="19.247"/>
		
			<line fill="none" stroke="#3A3A3A" stroke-width="1.9247" stroke-miterlimit="10" x1="434.045" y1="151.257" x2="437.918" y2="22.373"/>
		
			<line fill="none" stroke="#3A3A3A" stroke-width="1.9247" stroke-miterlimit="10" x1="434.045" y1="151.257" x2="489.303" y2="53.491"/>
		
			<line fill="none" stroke="#3A3A3A" stroke-width="1.9247" stroke-miterlimit="10" x1="434.045" y1="151.257" x2="559.063" y2="42.204"/>
		
			<line fill="none" stroke="#3A3A3A" stroke-width="1.9247" stroke-miterlimit="10" x1="434.045" y1="151.257" x2="567.813" y2="124.19"/>
		
			<line fill="none" stroke="#3A3A3A" stroke-width="1.9247" stroke-miterlimit="10" x1="434.045" y1="151.257" x2="766.887" y2="150.138"/>
		
			<line fill="none" stroke="#3A3A3A" stroke-width="1.9247" stroke-miterlimit="10" x1="434.045" y1="151.257" x2="635.65" y2="206.206"/>
		
			<line fill="none" stroke="#3A3A3A" stroke-width="1.9247" stroke-miterlimit="10" x1="434.045" y1="151.257" x2="572.703" y2="217.101"/>
		
			<line fill="none" stroke="#3A3A3A" stroke-width="1.9247" stroke-miterlimit="10" x1="434.045" y1="151.257" x2="541.432" y2="272.771"/>
		
			<line fill="none" stroke="#3A3A3A" stroke-width="1.9247" stroke-miterlimit="10" x1="434.045" y1="151.257" x2="483.275" y2="262.64"/>
		
			<line fill="none" stroke="#3A3A3A" stroke-width="1.9247" stroke-miterlimit="10" x1="434.045" y1="151.257" x2="441.795" y2="281.886"/>
		
			<line fill="none" stroke="#3A3A3A" stroke-width="1.9247" stroke-miterlimit="10" x1="434.045" y1="151.257" x2="388.885" y2="278.544"/>
		
			<line fill="none" stroke="#3A3A3A" stroke-width="1.9247" stroke-miterlimit="10" x1="434.045" y1="151.257" x2="356.576" y2="239.356"/>
		
			<line fill="none" stroke="#3A3A3A" stroke-width="1.9247" stroke-miterlimit="10" x1="434.045" y1="151.257" x2="284.4" y2="250.583"/>
		
			<line fill="none" stroke="#3A3A3A" stroke-width="1.9247" stroke-miterlimit="10" x1="434.045" y1="151.257" x2="307.016" y2="185.778"/>
		
			<line fill="none" stroke="#3A3A3A" stroke-width="1.9247" stroke-miterlimit="10" x1="434.045" y1="151.257" x2="93.115" y2="150.138"/>
		
			<line fill="none" stroke="#3A3A3A" stroke-width="1.9247" stroke-miterlimit="10" x1="434.045" y1="151.257" x2="283.096" y2="118.757"/>
		
			<line fill="none" stroke="#3A3A3A" stroke-width="1.9247" stroke-miterlimit="10" x1="434.045" y1="151.257" x2="251.682" y2="81.208"/>
		
			<line fill="none" stroke="#3A3A3A" stroke-width="1.9247" stroke-miterlimit="10" x1="434.045" y1="151.257" x2="344.547" y2="43.253"/>
		<circle fill="#F7941E" cx="559.063" cy="42.204" r="29.746"/>
		<circle fill="#00A651" cx="635.649" cy="206.206" r="22.61"/>
		<circle fill="#EC008C" cx="344.547" cy="43.253" r="30.795"/>
		<circle fill="#00AEEF" cx="307.017" cy="185.778" r="22.134"/>
		<circle fill="#00A651" cx="284.4" cy="250.583" r="22.615"/>
		<circle fill="#00AEEF" cx="541.432" cy="272.771" r="22.615"/>
		<circle fill="#F7941E" cx="388.885" cy="278.544" r="17.393"/>
	</g>
	<g>
		<circle fill="#3A3A3A" cx="766.886" cy="150.137" r="44.294"/>
		<circle fill="#3A3A3A" cx="843.558" cy="190.571" r="15.542"/>
		<circle fill="#3A3A3A" cx="805.234" cy="210.257" r="10.021"/>
		<circle fill="#3A3A3A" cx="786.611" cy="240.627" r="11.814"/>
		<circle fill="#3A3A3A" cx="760.862" cy="230.113" r="8.876"/>
		<circle fill="#3A3A3A" cx="727.844" cy="225.338" r="11.817"/>
		<circle fill="#3A3A3A" cx="830.442" cy="127.788" r="9.567"/>
		<path fill="#3A3A3A" d="M827.727,165.923c-3.996,1.541-8.484-0.449-10.025-4.441c-1.543-3.998,0.447-8.484,4.441-10.026
			c3.996-1.541,8.484,0.446,10.027,4.444C833.711,159.892,831.721,164.382,827.727,165.923z"/>
		<circle fill="#3A3A3A" cx="802.705" cy="86.198" r="16.09"/>
		<circle fill="#3A3A3A" cx="766.737" cy="48.065" r="8.8"/>
		<circle fill="#3A3A3A" cx="726.168" cy="94.704" r="11.564"/>
		<path fill="#3A3A3A" d="M751.295,79.778c-7.117,2.746-15.119-0.797-17.865-7.92c-2.746-7.118,0.799-15.117,7.916-17.861
			c7.123-2.746,15.121,0.797,17.865,7.915C761.961,69.036,758.412,77.03,751.295,79.778z"/>
		<circle fill="#3A3A3A" cx="690.323" cy="95.867" r="11.817"/>
		<circle fill="#3A3A3A" cx="709.369" cy="128.94" r="9.806"/>
		<circle fill="#3A3A3A" cx="698.938" cy="166.781" r="7.053"/>
		<circle fill="#3A3A3A" cx="721.846" cy="195.083" r="10.057"/>
		
			<line fill="none" stroke="#3A3A3A" stroke-width="1.0056" stroke-miterlimit="10" x1="766.887" y1="150.138" x2="830.441" y2="127.788"/>
		
			<line fill="none" stroke="#3A3A3A" stroke-width="1.0056" stroke-miterlimit="10" x1="766.887" y1="150.138" x2="824.936" y2="158.69"/>
		
			<line fill="none" stroke="#3A3A3A" stroke-width="1.0056" stroke-miterlimit="10" x1="766.887" y1="150.138" x2="843.559" y2="190.573"/>
		
			<line fill="none" stroke="#3A3A3A" stroke-width="1.0056" stroke-miterlimit="10" x1="766.887" y1="150.138" x2="805.236" y2="210.257"/>
		
			<line fill="none" stroke="#3A3A3A" stroke-width="1.0056" stroke-miterlimit="10" x1="766.887" y1="150.138" x2="786.609" y2="240.627"/>
		
			<line fill="none" stroke="#3A3A3A" stroke-width="1.0056" stroke-miterlimit="10" x1="766.887" y1="150.138" x2="760.863" y2="230.112"/>
		
			<line fill="none" stroke="#3A3A3A" stroke-width="1.0056" stroke-miterlimit="10" x1="766.887" y1="150.138" x2="727.844" y2="225.337"/>
		
			<line fill="none" stroke="#3A3A3A" stroke-width="1.0056" stroke-miterlimit="10" x1="766.887" y1="150.138" x2="721.846" y2="195.085"/>
		
			<line fill="none" stroke="#3A3A3A" stroke-width="1.0056" stroke-miterlimit="10" x1="766.887" y1="150.138" x2="698.939" y2="166.78"/>
		
			<line fill="none" stroke="#3A3A3A" stroke-width="1.0056" stroke-miterlimit="10" x1="766.887" y1="150.138" x2="709.369" y2="128.94"/>
		
			<line fill="none" stroke="#3A3A3A" stroke-width="1.0056" stroke-miterlimit="10" x1="766.887" y1="150.138" x2="690.322" y2="95.867"/>
		
			<line fill="none" stroke="#3A3A3A" stroke-width="1.0056" stroke-miterlimit="10" x1="766.887" y1="150.138" x2="726.166" y2="94.704"/>
		
			<line fill="none" stroke="#3A3A3A" stroke-width="1.0056" stroke-miterlimit="10" x1="766.887" y1="150.138" x2="746.322" y2="66.888"/>
		
			<line fill="none" stroke="#3A3A3A" stroke-width="1.0056" stroke-miterlimit="10" x1="766.887" y1="150.138" x2="766.738" y2="48.063"/>
		
			<line fill="none" stroke="#3A3A3A" stroke-width="1.0056" stroke-miterlimit="10" x1="766.887" y1="150.138" x2="802.705" y2="86.198"/>
	</g>
	<g>
		<circle fill="#3A3A3A" cx="93.116" cy="150.137" r="44.294"/>
		<circle fill="#3A3A3A" cx="16.443" cy="190.571" r="15.542"/>
		<circle fill="#3A3A3A" cx="54.766" cy="210.257" r="10.021"/>
		<circle fill="#3A3A3A" cx="73.391" cy="240.627" r="11.814"/>
		<circle fill="#3A3A3A" cx="99.138" cy="230.113" r="8.876"/>
		<circle fill="#3A3A3A" cx="132.157" cy="225.338" r="11.816"/>
		<circle fill="#3A3A3A" cx="29.559" cy="127.788" r="9.567"/>
		<path fill="#3A3A3A" d="M32.275,165.923c3.996,1.541,8.484-0.449,10.025-4.441c1.541-3.998-0.449-8.484-4.443-10.026
			c-3.996-1.541-8.484,0.446-10.025,4.444C26.289,159.892,28.279,164.382,32.275,165.923z"/>
		<circle fill="#3A3A3A" cx="57.297" cy="86.198" r="16.09"/>
		<circle fill="#3A3A3A" cx="93.264" cy="48.065" r="8.8"/>
		<circle fill="#3A3A3A" cx="133.834" cy="94.704" r="11.564"/>
		<path fill="#3A3A3A" d="M108.707,79.778c7.117,2.746,15.117-0.797,17.863-7.92c2.748-7.118-0.799-15.117-7.916-17.861
			c-7.121-2.746-15.119,0.797-17.865,7.915C98.039,69.036,101.588,77.03,108.707,79.778z"/>
		<circle fill="#3A3A3A" cx="169.678" cy="95.867" r="11.817"/>
		<circle fill="#3A3A3A" cx="150.633" cy="128.94" r="9.806"/>
		<circle fill="#3A3A3A" cx="161.063" cy="166.781" r="7.053"/>
		<circle fill="#3A3A3A" cx="138.156" cy="195.083" r="10.057"/>
		
			<line fill="none" stroke="#3A3A3A" stroke-width="1.0056" stroke-miterlimit="10" x1="93.115" y1="150.138" x2="29.559" y2="127.788"/>
		
			<line fill="none" stroke="#3A3A3A" stroke-width="1.0056" stroke-miterlimit="10" x1="93.115" y1="150.138" x2="35.066" y2="158.69"/>
		
			<line fill="none" stroke="#3A3A3A" stroke-width="1.0056" stroke-miterlimit="10" x1="93.115" y1="150.138" x2="16.443" y2="190.573"/>
		
			<line fill="none" stroke="#3A3A3A" stroke-width="1.0056" stroke-miterlimit="10" x1="93.115" y1="150.138" x2="54.766" y2="210.257"/>
		
			<line fill="none" stroke="#3A3A3A" stroke-width="1.0056" stroke-miterlimit="10" x1="93.115" y1="150.138" x2="73.391" y2="240.627"/>
		
			<line fill="none" stroke="#3A3A3A" stroke-width="1.0056" stroke-miterlimit="10" x1="93.115" y1="150.138" x2="99.137" y2="230.112"/>
		
			<line fill="none" stroke="#3A3A3A" stroke-width="1.0056" stroke-miterlimit="10" x1="93.115" y1="150.138" x2="132.158" y2="225.337"/>
		
			<line fill="none" stroke="#3A3A3A" stroke-width="1.0056" stroke-miterlimit="10" x1="93.115" y1="150.138" x2="138.156" y2="195.085"/>
		
			<line fill="none" stroke="#3A3A3A" stroke-width="1.0056" stroke-miterlimit="10" x1="93.115" y1="150.138" x2="161.063" y2="166.78"/>
		
			<line fill="none" stroke="#3A3A3A" stroke-width="1.0056" stroke-miterlimit="10" x1="93.115" y1="150.138" x2="150.633" y2="128.94"/>
		
			<line fill="none" stroke="#3A3A3A" stroke-width="1.0056" stroke-miterlimit="10" x1="93.115" y1="150.138" x2="169.678" y2="95.867"/>
		
			<line fill="none" stroke="#3A3A3A" stroke-width="1.0056" stroke-miterlimit="10" x1="93.115" y1="150.138" x2="133.834" y2="94.704"/>
		
			<line fill="none" stroke="#3A3A3A" stroke-width="1.0056" stroke-miterlimit="10" x1="93.115" y1="150.138" x2="113.68" y2="66.888"/>
		
			<line fill="none" stroke="#3A3A3A" stroke-width="1.0056" stroke-miterlimit="10" x1="93.115" y1="150.138" x2="93.264" y2="48.063"/>
		
			<line fill="none" stroke="#3A3A3A" stroke-width="1.0056" stroke-miterlimit="10" x1="93.115" y1="150.138" x2="57.297" y2="86.198"/>
	</g>
	<g>
		<path fill="#3A3A3A" d="M502.174,151.257c0,37.623-30.504,68.129-68.129,68.129c-37.627,0-68.129-30.506-68.129-68.129
			c0-37.631,30.502-68.129,68.129-68.129C471.67,83.128,502.174,113.626,502.174,151.257z"/>
		<g>
			<defs>
				<path id="SVGID_124_" d="M502.174,151.257c0,37.623-30.504,68.129-68.129,68.129c-37.627,0-68.129-30.506-68.129-68.129
					c0-37.631,30.502-68.129,68.129-68.129C471.67,83.128,502.174,113.626,502.174,151.257z"/>
			</defs>
			<clipPath id="SVGID_2_">
				<use xlink:href="#SVGID_124_"  overflow="visible"/>
			</clipPath>
			<g clip-path="url(#SVGID_2_)">
				<path fill-rule="evenodd" clip-rule="evenodd" fill="#FFFFFF" d="M418.891,131.401l14.117-1.508v14.152l-14.117,0.219V131.401z"
					/>
				<path fill-rule="evenodd" clip-rule="evenodd" fill="#FFFFFF" d="M440.232,129.124l19.021-2.027v16.551l-19.021,0.285V129.124z"
					/>
				<path fill-rule="evenodd" clip-rule="evenodd" fill="#FFFFFF" d="M418.891,112.831l14.117-3.365v14.143l-14.117,2.086V112.831z"
					/>
				<path fill-rule="evenodd" clip-rule="evenodd" fill="#FFFFFF" d="M440.232,107.73l19.021-4.541v16.552l-19.021,2.806V107.73z"/>
				<path fill-rule="evenodd" clip-rule="evenodd" fill="#FFFFFF" d="M418.891,94.256l14.117-5.235v14.151l-14.117,3.946V94.256z"/>
				<path fill-rule="evenodd" clip-rule="evenodd" fill="#FFFFFF" d="M440.232,86.341l19.021-7.05v16.548l-19.021,5.314V86.341z"/>
				<path fill-rule="evenodd" clip-rule="evenodd" fill="#FFFFFF" d="M418.891,185.693l14.117,3.946v14.148l-14.117-5.24V185.693z"
					/>
				<path fill-rule="evenodd" clip-rule="evenodd" fill="#FFFFFF" d="M440.232,191.655l19.021,5.314v16.551l-19.021-7.049V191.655z"
					/>
				<path fill-rule="evenodd" clip-rule="evenodd" fill="#FFFFFF" d="M418.891,167.118l14.117,2.076v14.152l-14.117-3.375V167.118z"
					/>
				<path fill-rule="evenodd" clip-rule="evenodd" fill="#FFFFFF" d="M440.232,170.265l19.021,2.802v16.552l-19.021-4.541V170.265z"
					/>
				<path fill-rule="evenodd" clip-rule="evenodd" fill="#FFFFFF" d="M418.891,148.544l14.117,0.223v14.146l-14.117-1.512V148.544z"
					/>
				<path fill-rule="evenodd" clip-rule="evenodd" fill="#FFFFFF" d="M440.232,148.876l19.021,0.287v16.543l-19.021-2.023V148.876z"
					/>
				<path fill-rule="evenodd" clip-rule="evenodd" fill="#FFFFFF" d="M462.926,149.163l40.365-0.292v57.312l-11.891,2.085V169.29
					l-12.736,0.826v40.381l-15.738,2.748V149.163z"/>
				<path fill-rule="evenodd" clip-rule="evenodd" fill="#FFFFFF" d="M462.926,127.188l17.617,0.887v15.717l-17.617-0.127V127.188z"
					/>
				<path fill-rule="evenodd" clip-rule="evenodd" fill="#FFFFFF" d="M487.85,128.442l15.441,0.773v14.747l-15.441-0.114V128.442z"
					/>
				<path fill-rule="evenodd" clip-rule="evenodd" fill="#FFFFFF" d="M462.926,103.382l17.617,1.98v15.725l-17.617-1.224V103.382z"
					/>
				<path fill-rule="evenodd" clip-rule="evenodd" fill="#FFFFFF" d="M487.85,106.188l15.441,1.744v14.733l-15.441-1.075V106.188z"
					/>
				<path fill-rule="evenodd" clip-rule="evenodd" fill="#FFFFFF" d="M462.926,79.584l17.617,3.077v15.712l-17.617-2.312V79.584z"/>
				<path fill-rule="evenodd" clip-rule="evenodd" fill="#FFFFFF" d="M487.85,83.941l15.441,2.71v14.729l-15.441-2.037V83.941z"/>
			</g>
			<g clip-path="url(#SVGID_2_)">
				<path fill="#FFFFFF" d="M342.231,241.737v-49.641c0-14.223,7.588-16.479,17.195-19.333c0.973-0.289,1.981-0.589,3.022-0.912
					c15.271-4.74,15.271-4.74,18.308-6.259c1.829-0.916,1.829-4.102,1.828-4.133l-0.037-2.274l1.354-0.008
					c0.011-0.62-0.083-1.792-0.591-3.824l-0.028-0.112l-0.016-0.113c-0.483-3.373-1.613-6.847-3.218-9.924
					c-0.149,0.018-0.307,0.027-0.47,0.027c-0.969,0-1.836-0.383-2.443-1.076c-1.104-1.264-1.014-3.119-0.813-4.594
					c0.069-0.505-0.043-1.424-0.143-2.233c-0.236-1.927-0.48-3.92,0.764-5.325c0.273-0.309,0.6-0.559,0.965-0.742
					c-0.325-5.344-1.009-17.554,6.099-25.106c3.941-4.188,9.634-6.313,16.92-6.313c7.287,0,12.98,2.124,16.924,6.313
					c7.135,7.584,6.42,19.863,6.097,25.173c0.562,0.259,0.96,0.614,1.231,0.937c1.344,1.596,0.96,3.825,0.619,5.793
					c-0.113,0.674-0.234,1.371-0.243,1.844c-0.071,4.422-1.966,5.352-3.543,5.352c-0.127,0-0.249-0.008-0.366-0.02
					c-1.473,2.57-2.477,5.824-3.052,9.891l-0.017,0.115l-0.028,0.114c-0.446,1.788-0.567,2.833-0.584,3.417h1.295l-0.037,2.273
					c-0.007,0.926,0.324,3.77,1.883,4.549c3.036,1.519,3.036,1.519,18.303,6.259c1.04,0.323,2.049,0.622,3.021,0.911
					c9.609,2.854,17.199,5.109,17.199,19.334v49.641H342.231z"/>
				<g>
					<path fill="#3A3A3A" d="M400.928,102.079c24.992,0,20.691,26.363,20.691,31.145c0.179-0.021,0.344-0.032,0.497-0.032
						c3.049,0.001,1.245,4.204,1.202,6.672c-0.042,2.604-0.656,3.151-1.306,3.151c-0.474,0-0.966-0.29-1.271-0.289
						c-0.097,0-0.175,0.028-0.228,0.105c-2.535,3.706-3.607,8.256-4.135,11.979c-0.533,2.133-1.395,6.198,0.607,6.198
						c0,0-0.08,4.986,3.119,6.586s3.199,1.6,18.641,6.395c11.264,3.492,18.646,4.261,18.646,18.107c0,13.846,0,47.402,0,47.402
						h-56.465h-56.459c0,0,0-33.557,0-47.402c0-13.847,7.387-14.615,18.645-18.107c15.445-4.795,15.445-4.795,18.645-6.395
						c3.191-1.6,3.064-6.185,3.064-6.185c2.102,0,1.193-4.467,0.66-6.6c-0.533-3.724-1.861-8.003-4.188-11.979
						c-0.047-0.079-0.131-0.108-0.244-0.108c-0.341,0-0.936,0.271-1.471,0.271c-0.754,0-1.392-0.537-1.039-3.13
						c0.322-2.366-1.432-6.736,0.995-6.736c0.204,0.001,0.438,0.031,0.706,0.097C380.242,128.442,375.938,102.079,400.928,102.079
						 M400.928,97.604c-7.928,0-14.168,2.36-18.549,7.017c-7.248,7.702-7.104,19.438-6.775,25.551
						c-0.115,0.11-0.228,0.227-0.334,0.348c-1.913,2.16-1.564,5.004-1.311,7.081c0.068,0.552,0.17,1.387,0.145,1.679
						c-0.241,1.772-0.367,4.383,1.349,6.348c0.832,0.953,1.94,1.563,3.185,1.767c1.184,2.548,2.026,5.335,2.414,8.051l0.034,0.229
						l0.056,0.223c0.096,0.384,0.174,0.729,0.238,1.039h-1.272l0.241,4.578c-0.007,0.927-0.373,1.969-0.596,2.081
						c-2.869,1.435-2.869,1.435-17.967,6.12c-1.031,0.32-2.031,0.618-2.996,0.904c-9.666,2.873-18.796,5.586-18.796,21.479v47.402
						v4.477h4.476h56.459h56.465h4.476v-4.477v-47.402c0-15.895-9.132-18.607-18.801-21.479c-0.964-0.286-1.964-0.583-2.997-0.903
						c-15.09-4.686-15.09-4.686-17.963-6.122c-0.263-0.234-0.643-1.497-0.646-2.552l0.073-4.547l-0.96,0.008
						c0.044-0.188,0.091-0.39,0.146-0.605l0.057-0.227l0.033-0.23c0.459-3.235,1.191-5.892,2.229-8.047
						c1.791-0.339,4.662-1.771,4.754-7.456c0.006-0.296,0.12-0.963,0.213-1.499c0.379-2.203,0.899-5.222-1.115-7.613
						c-0.195-0.232-0.408-0.447-0.635-0.643c0.33-6.111,0.475-17.854-6.775-25.559C415.098,99.966,408.856,97.604,400.928,97.604
						L400.928,97.604z"/>
				</g>
			</g>
		</g>
	</g>
	<g>
		<path fill="#3A3A3A" d="M128.883,150.138c0,19.75-16.014,35.766-35.766,35.766c-19.754,0-35.766-16.016-35.766-35.766
			c0-19.756,16.012-35.766,35.766-35.766C112.869,114.372,128.883,130.382,128.883,150.138z"/>
		<g>
			<defs>
				<path id="SVGID_126_" d="M128.883,150.138c0,19.75-16.014,35.766-35.766,35.766c-19.754,0-35.766-16.016-35.766-35.766
					c0-19.756,16.012-35.766,35.766-35.766C112.869,114.372,128.883,130.382,128.883,150.138z"/>
			</defs>
			<clipPath id="SVGID_4_">
				<use xlink:href="#SVGID_126_"  overflow="visible"/>
			</clipPath>
			<g clip-path="url(#SVGID_4_)">
				<path fill-rule="evenodd" clip-rule="evenodd" fill="#FFFFFF" d="M69.377,146.423l7.41-0.792v7.429l-7.41,0.115V146.423z"/>
				<path fill-rule="evenodd" clip-rule="evenodd" fill="#FFFFFF" d="M80.58,145.228l9.984-1.064v8.688l-9.984,0.149V145.228z"/>
				<path fill-rule="evenodd" clip-rule="evenodd" fill="#FFFFFF" d="M69.377,136.673l7.41-1.766v7.424l-7.41,1.095V136.673z"/>
				<path fill-rule="evenodd" clip-rule="evenodd" fill="#FFFFFF" d="M80.58,133.995l9.984-2.383v8.688l-9.984,1.474V133.995z"/>
				<path fill-rule="evenodd" clip-rule="evenodd" fill="#FFFFFF" d="M69.377,126.923l7.41-2.75v7.43l-7.41,2.072V126.923z"/>
				<path fill-rule="evenodd" clip-rule="evenodd" fill="#FFFFFF" d="M80.58,122.767l9.984-3.701v8.688l-9.984,2.789V122.767z"/>
				<path fill-rule="evenodd" clip-rule="evenodd" fill="#FFFFFF" d="M69.377,174.924l7.41,2.071v7.428l-7.41-2.751V174.924z"/>
				<path fill-rule="evenodd" clip-rule="evenodd" fill="#FFFFFF" d="M80.58,178.054l9.984,2.79v8.688l-9.984-3.701V178.054z"/>
				<path fill-rule="evenodd" clip-rule="evenodd" fill="#FFFFFF" d="M69.377,165.173l7.41,1.09v7.43l-7.41-1.771V165.173z"/>
				<path fill-rule="evenodd" clip-rule="evenodd" fill="#FFFFFF" d="M80.58,166.825l9.984,1.471v8.688l-9.984-2.384V166.825z"/>
				<path fill-rule="evenodd" clip-rule="evenodd" fill="#FFFFFF" d="M69.377,155.421l7.41,0.117v7.428l-7.41-0.795V155.421z"/>
				<path fill-rule="evenodd" clip-rule="evenodd" fill="#FFFFFF" d="M80.58,155.596l9.984,0.151v8.685l-9.984-1.063V155.596z"/>
				<path fill-rule="evenodd" clip-rule="evenodd" fill="#FFFFFF" d="M92.492,155.747l21.191-0.154v30.088l-6.24,1.094v-20.461
					l-6.688,0.434v21.197l-8.264,1.443V155.747z"/>
				<path fill-rule="evenodd" clip-rule="evenodd" fill="#FFFFFF" d="M92.492,144.21l9.25,0.467v8.25l-9.25-0.066V144.21z"/>
				<path fill-rule="evenodd" clip-rule="evenodd" fill="#FFFFFF" d="M105.58,144.869l8.104,0.406v7.741l-8.104-0.06V144.869z"/>
				<path fill-rule="evenodd" clip-rule="evenodd" fill="#FFFFFF" d="M92.492,131.713l9.25,1.04v8.255l-9.25-0.643V131.713z"/>
				<path fill-rule="evenodd" clip-rule="evenodd" fill="#FFFFFF" d="M105.58,133.187l8.104,0.915v7.734l-8.104-0.564V133.187z"/>
				<path fill-rule="evenodd" clip-rule="evenodd" fill="#FFFFFF" d="M92.492,119.22l9.25,1.615v8.248l-9.25-1.213V119.22z"/>
				<path fill-rule="evenodd" clip-rule="evenodd" fill="#FFFFFF" d="M105.58,121.507l8.104,1.423v7.732l-8.104-1.069V121.507z"/>
			</g>
		</g>
	</g>
	<g>
		<path fill="#3A3A3A" d="M731.119,150.138c0,19.75,16.014,35.766,35.766,35.766s35.766-16.016,35.766-35.766
			c0-19.756-16.014-35.766-35.766-35.766S731.119,130.382,731.119,150.138z"/>
		<g>
			<defs>
				<path id="SVGID_128_" d="M731.119,150.138c0,19.75,16.014,35.766,35.766,35.766s35.766-16.016,35.766-35.766
					c0-19.756-16.014-35.766-35.766-35.766S731.119,130.382,731.119,150.138z"/>
			</defs>
			<clipPath id="SVGID_6_">
				<use xlink:href="#SVGID_128_"  overflow="visible"/>
			</clipPath>
			<g clip-path="url(#SVGID_6_)">
				<path fill-rule="evenodd" clip-rule="evenodd" fill="#FFFFFF" d="M790.625,153.175l-7.41-0.115v-7.429l7.41,0.792V153.175z"/>
				<path fill-rule="evenodd" clip-rule="evenodd" fill="#FFFFFF" d="M779.422,153.001l-9.986-0.149v-8.688l9.986,1.064V153.001z"/>
				<path fill-rule="evenodd" clip-rule="evenodd" fill="#FFFFFF" d="M790.625,143.426l-7.41-1.095v-7.424l7.41,1.766V143.426z"/>
				<path fill-rule="evenodd" clip-rule="evenodd" fill="#FFFFFF" d="M779.422,141.774l-9.986-1.474v-8.688l9.986,2.383V141.774z"/>
				<path fill-rule="evenodd" clip-rule="evenodd" fill="#FFFFFF" d="M790.625,133.675l-7.41-2.072v-7.43l7.41,2.75V133.675z"/>
				<path fill-rule="evenodd" clip-rule="evenodd" fill="#FFFFFF" d="M779.422,130.542l-9.986-2.789v-8.688l9.986,3.701V130.542z"/>
				<path fill-rule="evenodd" clip-rule="evenodd" fill="#FFFFFF" d="M790.625,181.672l-7.41,2.751v-7.428l7.41-2.071V181.672z"/>
				<path fill-rule="evenodd" clip-rule="evenodd" fill="#FFFFFF" d="M779.422,185.831l-9.986,3.701v-8.688l9.986-2.79V185.831z"/>
				<path fill-rule="evenodd" clip-rule="evenodd" fill="#FFFFFF" d="M790.625,171.921l-7.41,1.771v-7.43l7.41-1.09V171.921z"/>
				<path fill-rule="evenodd" clip-rule="evenodd" fill="#FFFFFF" d="M779.422,174.601l-9.986,2.384v-8.688l9.986-1.471V174.601z"/>
				<path fill-rule="evenodd" clip-rule="evenodd" fill="#FFFFFF" d="M790.625,162.171l-7.41,0.795v-7.428l7.41-0.117V162.171z"/>
				<path fill-rule="evenodd" clip-rule="evenodd" fill="#FFFFFF" d="M779.422,163.369l-9.986,1.063v-8.685l9.986-0.151V163.369z"/>
				<path fill-rule="evenodd" clip-rule="evenodd" fill="#FFFFFF" d="M767.51,189.388l-8.264-1.443v-21.197l-6.688-0.434v20.461
					l-6.24-1.094v-30.088l21.191,0.154V189.388z"/>
				<path fill-rule="evenodd" clip-rule="evenodd" fill="#FFFFFF" d="M767.51,152.86l-9.25,0.066v-8.25l9.25-0.467V152.86z"/>
				<path fill-rule="evenodd" clip-rule="evenodd" fill="#FFFFFF" d="M754.422,152.957l-8.104,0.06v-7.741l8.104-0.406V152.957z"/>
				<path fill-rule="evenodd" clip-rule="evenodd" fill="#FFFFFF" d="M767.51,140.365l-9.25,0.643v-8.255l9.25-1.04V140.365z"/>
				<path fill-rule="evenodd" clip-rule="evenodd" fill="#FFFFFF" d="M754.422,141.271l-8.104,0.564v-7.734l8.104-0.915V141.271z"/>
				<path fill-rule="evenodd" clip-rule="evenodd" fill="#FFFFFF" d="M767.51,127.87l-9.25,1.213v-8.248l9.25-1.615V127.87z"/>
				<path fill-rule="evenodd" clip-rule="evenodd" fill="#FFFFFF" d="M754.422,129.593l-8.104,1.069v-7.732l8.104-1.423V129.593z"/>
			</g>
		</g>
	</g>
	<g>
		<rect x="334.025" y="32.73" fill="#FFFFFF" width="8.768" height="5.261"/>
		<rect x="334.025" y="50.267" fill="#FFFFFF" width="5.26" height="3.508"/>
		<rect x="334.025" y="46.76" fill="#FFFFFF" width="5.26" height="1.753"/>
		<rect x="334.025" y="43.253" fill="#FFFFFF" width="5.26" height="1.754"/>
		<rect x="334.025" y="39.745" fill="#FFFFFF" width="5.26" height="1.754"/>
		<rect x="341.039" y="50.267" fill="#FFFFFF" width="7.016" height="3.508"/>
		<rect x="349.807" y="50.267" fill="#FFFFFF" width="5.262" height="3.508"/>
		<rect x="341.039" y="46.76" fill="#FFFFFF" width="14.029" height="1.753"/>
		<rect x="341.039" y="43.253" fill="#FFFFFF" width="14.029" height="1.754"/>
		<rect x="341.039" y="39.745" fill="#FFFFFF" width="14.029" height="1.754"/>
		<rect x="346.301" y="32.73" fill="#FFFFFF" width="8.768" height="5.261"/>
	</g>
	<g>
		<path fill="#FFFFFF" d="M557.135,46.451c0.004-0.005,0.012-0.007,0.02-0.013c0.563-0.561,0.707-1.357,0.494-2.064
			c0.652-0.352,1.111-1.021,1.111-1.813c0-0.793-0.459-1.457-1.111-1.809c0.213-0.712,0.064-1.503-0.494-2.064
			c-0.564-0.559-1.357-0.707-2.066-0.494c-0.352-0.652-1.016-1.111-1.809-1.111s-1.459,0.459-1.811,1.109
			c-0.707-0.214-1.506-0.066-2.066,0.494c-0.561,0.56-0.707,1.354-0.494,2.066c-0.652,0.35-1.111,1.016-1.111,1.809
			c0,0.791,0.459,1.461,1.111,1.813c-0.215,0.709-0.068,1.504,0.494,2.066c0.195,0.193,0.42,0.336,0.66,0.438l-1.473,4.35
			l1.762-1.091l1.043,2.14l1.436-4.322c0.146,0.035,0.289,0.09,0.449,0.09c0.432,0,0.811-0.162,1.145-0.388l1.953,5.903l1.049-2.141
			l1.758,1.095L557.135,46.451z"/>
		<rect x="552.107" y="30.847" fill="#FFFFFF" width="10.648" height="1.894"/>
		<rect x="560.863" y="30.847" fill="#FFFFFF" width="1.893" height="15.915"/>
		<rect x="564.648" y="38.419" fill="#FFFFFF" width="5.68" height="1.893"/>
		<rect x="568.436" y="38.419" fill="#FFFFFF" width="1.893" height="14.021"/>
	</g>
	<g>
		<path fill="#FFFFFF" d="M643.656,196.58c1.797,0,3.254,1.44,3.254,3.22c0,1.781-1.457,3.371-3.254,3.371
			c-1.795,0-3.402-1.59-3.402-3.371C640.254,198.021,641.861,196.58,643.656,196.58"/>
		<path fill="#FFFFFF" d="M635.631,197.356c2.295,0,4.018,1.874,4.018,3.992c0,2.121-1.723,3.838-4.018,3.838
			c-2.297,0-4.018-1.717-4.018-3.838C631.613,199.23,633.334,197.356,635.631,197.356"/>
		<path fill="#FFFFFF" d="M635.631,206.677c-1.127,0-2.166-0.311-3.029-0.853c-1.283,2.437-2.58,7.229-2.26,9.018
			c0.66,1.673,2.895,2.475,5.193,2.475c2.133,0,4.318-0.689,5.359-2.019c0.477-1.35-0.619-7.155-1.893-9.707
			C638.076,206.274,636.912,206.677,635.631,206.677z"/>
		<path fill="#FFFFFF" d="M646.527,203.638c-0.803,0.641-1.803,1.023-2.871,1.023c-1.023,0-1.998-0.352-2.803-0.934
			c-0.203,0.352-0.391,0.723-0.566,1.102c0.852,1.654,1.432,4.1,1.66,5.185c0.172,0.816,0.387,1.966,0.488,3.075
			c2.311,0.361,4.936-0.069,5.631-1.592C648.699,209.66,647.652,205.671,646.527,203.638z"/>
		<path fill="#FFFFFF" d="M627.645,196.58c-1.799,0-3.254,1.44-3.254,3.22c0,1.781,1.455,3.371,3.254,3.371
			c1.797,0,3.4-1.59,3.4-3.371C631.045,198.021,629.441,196.58,627.645,196.58"/>
		<path fill="#FFFFFF" d="M624.773,203.638c0.805,0.641,1.803,1.023,2.871,1.023c1.023,0,1.998-0.352,2.803-0.934
			c0.205,0.352,0.391,0.723,0.566,1.102c-0.852,1.654-1.432,4.1-1.66,5.185c-0.172,0.816-0.387,1.966-0.488,3.075
			c-2.313,0.361-4.932-0.069-5.633-1.592C622.602,209.66,623.648,205.671,624.773,203.638z"/>
	</g>
	<g>
		<rect x="532.762" y="262.366" fill="#FFFFFF" width="1.734" height="20.809"/>
		<rect x="537.963" y="272.771" fill="#FFFFFF" width="3.469" height="6.937"/>
		<rect x="544.9" y="265.835" fill="#FFFFFF" width="3.467" height="13.873"/>
		<rect x="531.027" y="279.706" fill="#FFFFFF" width="20.809" height="1.734"/>
	</g>
	<g>
		<path fill-rule="evenodd" clip-rule="evenodd" fill="#FFFFFF" d="M298.289,188.088c0.195-0.651,0.684-1.308,1.205-1.233
			c0.068,0.008,0.139,0.032,0.203,0.064c0.551,0.285,0.611,1.141,0.387,1.846c-0.184,0.578-0.598,1.131-1.115,1.063l0,0
			c-0.078-0.013-0.158-0.037-0.24-0.074C298.125,189.464,298.113,188.679,298.289,188.088z"/>
		<path fill-rule="evenodd" clip-rule="evenodd" fill="#FFFFFF" d="M300.947,191.794c0.143,0.053,0.277,0.086,0.404,0.086l0,0
			c0.627,0,1.025-0.742,1.143-1.475c0.131-0.795-0.053-1.747-0.643-1.943c-0.057-0.016-0.117-0.023-0.18-0.023
			c-0.564,0-1.246,0.83-1.424,1.742C300.174,190.548,300.096,191.443,300.947,191.794z"/>
		<path fill-rule="evenodd" clip-rule="evenodd" fill="#FFFFFF" d="M302.98,193.517c0.098,0.028,0.195,0.041,0.289,0.041
			c0.695,0,1.18-0.75,1.336-1.45c0.133-0.615,0.072-1.434-0.555-1.723c-0.094-0.045-0.191-0.069-0.289-0.069
			c-0.656,0-1.283,0.985-1.404,1.865C302.313,192.519,302.279,193.321,302.98,193.517z"/>
		<path fill-rule="evenodd" clip-rule="evenodd" fill="#FFFFFF" d="M305.354,195.202c0.102,0.012,0.199,0.008,0.293-0.008
			c0.689-0.11,1.043-0.933,1.084-1.646c0.033-0.632-0.164-1.429-0.826-1.612c-0.102-0.029-0.201-0.033-0.299-0.021
			c-0.646,0.11-1.104,1.181-1.082,2.069C304.531,194.323,304.633,195.12,305.354,195.202z"/>
		<path fill-rule="evenodd" clip-rule="evenodd" fill="#FFFFFF" d="M314.012,189.925c0.244,0,0.428-0.074,0.563-0.229
			c0.26-0.301,0.334-0.937,0.211-1.84c-0.012-0.033-0.033-0.07-0.053-0.106l-0.004-0.009c-1.906-2.027-5.238-5.371-6.064-5.721
			c-0.008,0-0.016-0.004-0.031-0.004c-0.338,0-1.072,0.704-1.658,1.266c-0.965,0.93-2.061,1.976-3.131,1.976
			c-0.383,0-0.738-0.13-1.047-0.392c-0.502-0.427-0.693-1.07-0.574-1.918c0.285-2.048,2.398-4.923,4.178-6.263
			c-0.012-0.008-0.025-0.021-0.037-0.028c-0.277-0.207-0.59-0.31-0.957-0.31c-1.086,0-2.365,0.884-3.299,1.531
			c-0.557,0.383-0.965,0.663-1.229,0.696c-0.021,0-0.041,0-0.063,0c-0.756,0-2.842-1.584-3.518-2.113
			c-1.16,2.952-2.879,7.566-2.789,8.034c0.094,0.155,1.445,1.434,3.438,3.147c0.23-0.668,0.721-1.344,1.469-1.344
			c0.135,0,0.27,0.025,0.404,0.074c0.74,0.256,1.025,1.033,1.059,1.742c0.379-0.256,0.785-0.33,1.156-0.207
			c0.807,0.269,1.084,1.172,1.084,1.995c0.391-0.208,0.805-0.224,1.18-0.054c0.559,0.262,0.9,0.836,0.941,1.564
			c0.02-0.008,0.041-0.012,0.057-0.021c0.191-0.053,0.391-0.065,0.594-0.032c0.758,0.13,1.291,0.863,1.354,1.877
			c0.023,0.387-0.029,0.781-0.156,1.128c0.393,0.159,0.686,0.204,0.803,0.13c0.619-0.37,0.627-0.565,0.635-0.77
			c0.01-0.162,0.021-0.361,0.244-0.574c0.049-0.045,0.119-0.061,0.18-0.04c0.033,0.013,0.074,0.024,0.119,0.04
			c0.195,0.07,0.467,0.164,0.74,0.164c0.24,0,0.973-0.005,1.186-1.768c0-0.033,0.012-0.058,0.027-0.082
			c0.045-0.061,0.111-0.094,0.188-0.094c0.094,0,0.195,0.049,0.334,0.114c0.18,0.085,0.42,0.204,0.648,0.204
			c0.48,0,0.789-0.566,0.924-1.682c0.008-0.086,0.078-0.18,0.221-0.18c0.053,0,0.121,0.012,0.211,0.032
			C313.678,189.892,313.84,189.925,314.012,189.925z"/>
		<path fill-rule="evenodd" clip-rule="evenodd" fill="#FFFFFF" d="M313.096,178.399c-0.037,0.005-0.082,0.021-0.119,0.009
			c-0.406,0-0.908-0.321-1.547-0.725c-0.844-0.542-1.895-1.214-2.943-1.214c-0.334,0-0.656,0.069-0.953,0.203
			c-1.695,0.766-4.428,4.184-4.732,6.357c-0.09,0.635,0.037,1.104,0.375,1.389c0.203,0.171,0.424,0.256,0.668,0.256
			c0.834,0,1.84-0.965,2.723-1.812c0.803-0.77,1.496-1.434,2.066-1.434c0.088,0,0.178,0.021,0.26,0.054
			c1.145,0.484,5.393,4.939,6.148,5.741l4.484-3.417l-2.758-7.366C316.117,176.869,313.967,178.249,313.096,178.399z"/>
	</g>
	<g>
		<rect x="274.797" y="240.499" fill="#FFFFFF" width="8.404" height="6.723"/>
		<rect x="284.883" y="248.903" fill="#FFFFFF" width="10.084" height="5.041"/>
		<rect x="284.883" y="255.626" fill="#FFFFFF" width="10.084" height="5.042"/>
		<rect x="279.84" y="250.583" fill="#FFFFFF" width="5.043" height="1.682"/>
		<rect x="279.84" y="257.307" fill="#FFFFFF" width="5.043" height="1.681"/>
		<rect x="278.16" y="247.222" fill="#FFFFFF" width="1.68" height="13.446"/>
	</g>
	<g id="Procedures_10_">
		<path fill="#FFFFFF" d="M394.91,276.198l-2.926,2.969l2.975,2.922l2.926-2.971L394.91,276.198z"/>
		<path fill="#FFFFFF" d="M392.34,273.854l1.053,1.192l-0.381,0.337l1.688,0.432l-0.217-1.732l-0.381,0.338l-1.053-1.195
			L392.34,273.854z"/>
		<path fill="#FFFFFF" d="M394.154,282.065l-1.158,1.09l-0.348-0.371l-0.379,1.705l1.721-0.271l-0.348-0.371l1.16-1.09
			L394.154,282.065z"/>
		<path fill="#FFFFFF" d="M385.859,284.392l-1.131-1.121l0.357-0.361l-1.713-0.316l0.334,1.713l0.357-0.359l1.129,1.117
			L385.859,284.392z"/>
		<path fill="#FFFFFF" d="M383.445,275.75l1.184-1.063l0.338,0.378l0.418-1.694l-1.727,0.232l0.338,0.379l-1.182,1.063
			L383.445,275.75z"/>
		<path fill="#FFFFFF" d="M382.793,276.198l-2.908,2.988l2.994,2.902l2.906-2.99L382.793,276.198z"/>
		<path fill="#FFFFFF" d="M391.34,271.373h-4.377c-0.367,0-0.664,0.292-0.664,0.65v2.215c0,0.358,0.297,0.65,0.664,0.65h4.377
			c0.365,0,0.662-0.292,0.662-0.65v-2.215C392.002,271.665,391.705,271.373,391.34,271.373z"/>
		<path fill="#FFFFFF" d="M391.34,282.86h-4.377c-0.367,0-0.664,0.293-0.664,0.65v2.213c0,0.359,0.297,0.652,0.664,0.652h4.377
			c0.365,0,0.662-0.293,0.662-0.652v-2.213C392.002,283.153,391.705,282.86,391.34,282.86z"/>
		<path fill="#FFFFFF" d="M391.646,276.374c-0.861,1.668-1.924,3.689-2.785,5.357h-0.492c-0.369-0.975-0.738-2.086-1.354-3.059
			c0.123-0.139,0.246-0.277,0.615-0.277c0.492,0,0.492,0.557,1.23,1.389c0.615-0.973,1.432-2.299,2.293-3.41H391.646z"/>
	</g>
</g>
</svg>
